<svg xmlns="http://www.w3.org/2000/svg" width="21" height="24.826" viewBox="0 0 21 24.826">
  <g id="location_2_" data-name="location (2)" transform="translate(-39.451)">
    <g id="Group_140" data-name="Group 140" transform="translate(46.778 6.93)">
      <g id="Group_139" data-name="Group 139">
        <path id="Path_389" data-name="Path 389" d="M193.736,142.93a3.173,3.173,0,1,0,3.173,3.173A3.177,3.177,0,0,0,193.736,142.93Z" transform="translate(-190.563 -142.93)" fill="#0d2815"/>
      </g>
    </g>
    <g id="Group_142" data-name="Group 142" transform="translate(39.451)">
      <g id="Group_141" data-name="Group 141">
        <path id="Path_390" data-name="Path 390" d="M57.376,3.075A10.5,10.5,0,0,0,39.451,10.5c0,5.674,5.365,10.393,8.247,12.928.4.352.746.657,1.022.914a1.809,1.809,0,0,0,2.463,0c.276-.257.621-.562,1.022-.914,2.882-2.535,8.247-7.254,8.247-12.928A10.431,10.431,0,0,0,57.376,3.075ZM49.951,14.73A4.627,4.627,0,1,1,54.578,10.1,4.632,4.632,0,0,1,49.951,14.73Z" transform="translate(-39.451)" fill="#0d2815"/>
      </g>
    </g>
  </g>
</svg>
