<svg xmlns="http://www.w3.org/2000/svg" width="27.554" height="26.056" viewBox="0 0 27.554 26.056"><g transform="translate(-208.5 -743.944)"><g transform="translate(210.434 757.421)"><path d="M35.944,264.348l1.846,11.077a1.8,1.8,0,0,0,1.773,1.5H56.292a1.8,1.8,0,0,0,1.779-1.543l1.576-11.036Zm7.35,8.086a.9.9,0,1,1-1.8,0v-5.391a.9.9,0,0,1,1.8,0Zm5.391,0a.9.9,0,1,1-1.8,0v-5.391a.9.9,0,0,1,1.8,0Zm5.391,0a.9.9,0,1,1-1.8,0v-5.391a.9.9,0,0,1,1.8,0Z" transform="translate(-35.944 -264.348)" fill="#0d2815"/></g><g transform="translate(208.5 743.944)"><g transform="translate(0 0)"><path d="M26.655,22H24.032l-7.823-7.823a.9.9,0,1,0-1.271,1.271L21.491,22H6.062l6.553-6.553a.9.9,0,0,0-1.271-1.271L3.521,22H.9a.9.9,0,0,0-.9.9v1.8a.9.9,0,0,0,.9.9H26.655a.9.9,0,0,0,.9-.9V22.9A.9.9,0,0,0,26.655,22Z" transform="translate(0 -13.913)" fill="#0d2815"/></g></g></g></svg>