<svg id="call" xmlns="http://www.w3.org/2000/svg" width="20.297" height="20.297" viewBox="0 0 20.297 20.297">
  <g id="Group_27" data-name="Group 27">
    <path id="Path_189" data-name="Path 189" d="M18.668,13.323a11.524,11.524,0,0,1-3.619-.576,1.654,1.654,0,0,0-1.609.339l-2.282,1.723A12.612,12.612,0,0,1,5.488,9.139L7.16,6.916a1.641,1.641,0,0,0,.4-1.662,11.542,11.542,0,0,1-.579-3.625A1.63,1.63,0,0,0,5.356,0H1.629A1.631,1.631,0,0,0,0,1.629,18.689,18.689,0,0,0,18.668,20.3,1.631,1.631,0,0,0,20.3,18.668V14.951A1.631,1.631,0,0,0,18.668,13.323Z" fill="#0d2815"/>
  </g>
</svg>
