<svg xmlns="http://www.w3.org/2000/svg" width="60.34" height="48.919" viewBox="0 0 60.34 48.919">
  <g id="noun_coffee_beans_1952087" data-name="noun_coffee beans_1952087" transform="translate(0.131)">
    <g id="Group_152" data-name="Group 152" transform="translate(-0.131)">
      <path id="Path_400" data-name="Path 400" d="M101.387,28.364C96.081,26.936,92,21.222,92,14.284,92,6.53,96.9.408,103.223,0c1.632,5.1.408,8.57-1.02,12.039C100.57,16.325,98.938,21.018,101.387,28.364Z" transform="translate(-73.2)" fill="#0d2815" fill-rule="evenodd"/>
      <path id="Path_401" data-name="Path 401" d="M148.364,1c5.305,1.428,9.183,7.142,9.183,14.08,0,7.754-4.9,13.876-11.019,14.284-2.653-7.142-1.02-11.427.612-15.508C148.568,9.979,149.792,6.305,148.364,1Z" transform="translate(-115.484 -0.796)" fill="#0d2815" fill-rule="evenodd"/>
      <path id="Path_402" data-name="Path 402" d="M181.718,174.631c-3.469,3.877-10.407,4.9-16.937,2.449-7.346-2.653-11.427-8.979-9.183-14.08,5.51.408,8.162,2.653,11.019,5.1C170.087,170.958,173.76,174.019,181.718,174.631Z" transform="translate(-123.331 -129.739)" fill="#0d2815" fill-rule="evenodd"/>
      <path id="Path_403" data-name="Path 403" d="M165,138.039c3.265-3.673,10.2-4.693,16.733-2.245,7.346,2.653,11.427,8.774,9.387,13.876-7.958-.408-11.427-3.265-14.692-5.918C173.366,141.1,170.51,138.855,165,138.039Z" transform="translate(-131.304 -107.022)" fill="#0d2815" fill-rule="evenodd"/>
      <path id="Path_404" data-name="Path 404" d="M33.915,162c1.632,4.489-1.428,10.2-7.55,13.468-6.734,3.673-14.9,3.061-18.365-1.428,3.469-3.673,7.346-4.489,11.223-5.1C23.712,168.122,28.61,167.306,33.915,162Z" transform="translate(-6.341 -128.943)" fill="#0d2815" fill-rule="evenodd"/>
      <path id="Path_405" data-name="Path 405" d="M.3,147.924c-1.632-4.489,1.428-10,7.55-13.264,6.734-3.673,14.692-3.061,18.365,1.428-5.1,5.305-9.591,6.122-14.08,6.938C8.058,143.639,4.181,144.455.3,147.924Z" transform="translate(0.131 -105.276)" fill="#0d2815" fill-rule="evenodd"/>
    </g>
  </g>
</svg>
