<svg xmlns="http://www.w3.org/2000/svg" width="28.771" height="24.411" viewBox="0 0 28.771 24.411"><path d="M18.3,19.315a8.919,8.919,0,0,1,1.888-5.566L14.519,7.5,4.9,8.476,4,19.022,15.688,31.911l5.395-5.956A8.886,8.886,0,0,1,18.3,19.315Zm-7.552-4.394a1.645,1.645,0,0,1-2.517,0,2,2,0,0,1,0-2.734,1.645,1.645,0,0,1,2.517,0A2.215,2.215,0,0,1,10.743,14.921Zm15.734-2.539a6.54,6.54,0,0,0-6.294,6.835,6.54,6.54,0,0,0,6.294,6.835,6.54,6.54,0,0,0,6.294-6.835A6.54,6.54,0,0,0,26.477,12.382Zm3.6,7.811h-2.7v2.929h-1.8V20.194h-2.7V18.241h2.7V15.311h1.8v2.929h2.7Z" transform="translate(-4 -7.5)" fill="#0d2815" fill-rule="evenodd"/></svg>