<svg xmlns="http://www.w3.org/2000/svg" width="22.642" height="23.805" viewBox="0 0 22.642 23.805"><g transform="translate(-47 -36)"><g transform="translate(47 36)"><path d="M65.216,39.008a1.067,1.067,0,0,0-.757-.3H59.335V37.082A1.1,1.1,0,0,0,58.231,36H53.9a1.067,1.067,0,0,0-1.06,1.082v1.623H48.055A1.05,1.05,0,0,0,47,39.776V47.87a1.044,1.044,0,0,0,1.055,1.06h4.788v9.792A1.063,1.063,0,0,0,53.9,59.8h4.328a1.1,1.1,0,0,0,1.1-1.082V48.93h5.123a1.08,1.08,0,0,0,.763-.3l4.1-4.041a1.084,1.084,0,0,0,0-1.536Zm-10.209-.844h2.164v.541H55.007Zm2.164,19.477H55.007V48.93h2.164Zm6.844-10.874H49.164v-5.9H64.015l3,2.949Z" transform="translate(-47 -36)" fill="#0d2815"/><path d="M131.082,137.164h4.058a1.082,1.082,0,0,0,0-2.164h-4.058a1.082,1.082,0,0,0,0,2.164Z" transform="translate(-125.51 -129.644)" fill="#0d2815"/><path d="M140.009,181h-8.927a1.082,1.082,0,0,0,0,2.164h8.927a1.082,1.082,0,1,0,0-2.164Z" transform="translate(-125.51 -173.155)" fill="#0d2815"/></g></g></svg>