<svg xmlns="http://www.w3.org/2000/svg" width="54.832" height="47.978" viewBox="0 0 54.832 47.978">
  <g id="noun_favourite_3013902" transform="translate(-16 -27)">
    <path id="Path_399" data-name="Path 399" d="M45.416,57.983A15.125,15.125,0,0,0,49.1,67.922a31.121,31.121,0,0,1-2.827,1.8,1.556,1.556,0,0,1-1.713,0C43.445,69.121,18,53.614,18,37.421A15.415,15.415,0,0,1,45.416,27.74a15.415,15.415,0,0,1,27.416,9.681A19.974,19.974,0,0,1,70.6,46.075a15.148,15.148,0,0,0-9.767-3.513A15.467,15.467,0,0,0,45.416,57.983Zm27.416,0A11.994,11.994,0,1,1,60.837,45.989,12.03,12.03,0,0,1,72.832,57.983Zm-5.14,0a1.719,1.719,0,0,0-1.714-1.713H55.7a1.713,1.713,0,0,0,0,3.427H65.978A1.719,1.719,0,0,0,67.691,57.983Z" transform="translate(-2 5)" fill="#0d2815"/>
  </g>
</svg>
