<svg xmlns="http://www.w3.org/2000/svg" width="63.653" height="53.969" viewBox="0 0 63.653 53.969">
  <g id="noun_cart_3262515" transform="translate(-123.848 301.799)">
    <path id="Path_395" data-name="Path 395" d="M53.429,43.812a12.891,12.891,0,1,1,9.2-3.787,13,13,0,0,1-9.2,3.787m5.985-11L57.668,30.8l1.747-2.015a2.284,2.284,0,0,0,.994-2.015,2.882,2.882,0,0,0-2.989-3,2.264,2.264,0,0,0-2.015,1l-2.015,1.747-2.015-1.747a2.25,2.25,0,0,0-2.015-1,2.888,2.888,0,0,0-3,3,2.27,2.27,0,0,0,1,2.015L49.1,30.8l-1.74,2.015a2.264,2.264,0,0,0-1,2.015,2.888,2.888,0,0,0,3,3,2.25,2.25,0,0,0,2.015-1l2.015-1.747L55.4,36.833a2.264,2.264,0,0,0,2.015,1A2.882,2.882,0,0,0,60.409,34.8a2.27,2.27,0,0,0-.994-2.015M41.2,20.57l-3.238-6.247h0a3.453,3.453,0,0,1-.5-1.5,2.888,2.888,0,0,1,3-3,3.063,3.063,0,0,1,2.761,1.747h0l2.741,5.246a13.777,13.777,0,0,0-4.7,3.748M30.994,14.323,24.518,26.817H17.8l7.953-15.242h0a3.063,3.063,0,0,1,2.741-1.747,2.888,2.888,0,0,1,3,3,3.453,3.453,0,0,1-.5,1.5ZM27.01,29.813H37.476v1a15.886,15.886,0,0,0,5.985,12.494V54.8a3,3,0,1,0,5.985,0V46.3a18.916,18.916,0,0,0,3.983.5,14.348,14.348,0,0,0,4.7-.752l-3.7,15.49h0a3.224,3.224,0,0,1-3,2.25h-33.9a3.224,3.224,0,0,1-3-2.25h0L8.289,35.812H5.6a3,3,0,0,1,0-6H27.01ZM31.5,54.8a2.989,2.989,0,1,0,5.978,0V38.828a2.989,2.989,0,0,0-5.978,0V54.815ZM25.512,38.828a2.994,2.994,0,1,0-5.985,0V54.815a2.994,2.994,0,1,0,5.985,0Z" transform="translate(121.106 -311.626)" fill="#0d2815" fill-rule="evenodd"/>
  </g>
</svg>
