<svg xmlns="http://www.w3.org/2000/svg" width="64" height="56" viewBox="0 0 64 56">
  <g id="noun_favourite_3013899" transform="translate(-18 -22)">
    <path id="Path_398" data-name="Path 398" d="M64,22a17.983,17.983,0,0,0-14,6.7A17.993,17.993,0,0,0,18,40c0,18.9,29.7,37,31,37.7a1.817,1.817,0,0,0,2,0C52.3,77,82,58.9,82,40A18.053,18.053,0,0,0,64,22ZM50,73.6C44.8,70.3,22,54.8,22,40A14.041,14.041,0,0,1,36,26a14.207,14.207,0,0,1,12.3,7.2,2.058,2.058,0,0,0,3.5,0A13.976,13.976,0,0,1,78,40C78,54.8,55.2,70.3,50,73.6Z"/>
  </g>
</svg>
