<svg xmlns="http://www.w3.org/2000/svg" width="25.261" height="21.414" viewBox="0 0 25.261 21.414"><path d="M21.573,15.254a7.214,7.214,0,0,0-8.938,1.662,7.225,7.225,0,0,0-8.947-1.662A6.98,6.98,0,0,0,0,21.394a6.807,6.807,0,0,0,.353,2.164c1.221,5.41,9.04,12.234,12.282,12.234,3.153,0,11.047-6.824,12.273-12.234a6.807,6.807,0,0,0,.353-2.164A6.978,6.978,0,0,0,21.573,15.254Zm1.391,7.688a.483.483,0,0,1-.457.328.456.456,0,0,1-.154-.018.494.494,0,0,1-.3-.626,3.909,3.909,0,0,0,.207-1.231,4.011,4.011,0,0,0-2.127-3.527,4.092,4.092,0,0,0-2.007-.519.49.49,0,0,1,0-.98,5.116,5.116,0,0,1,2.457.626,5.007,5.007,0,0,1,2.637,4.4A4.857,4.857,0,0,1,22.964,22.942Z" transform="translate(0 -14.378)"/></svg>