<svg xmlns="http://www.w3.org/2000/svg" width="24.817" height="22.749" viewBox="0 0 24.817 22.749">
  <g id="noun_Settings_1468363" transform="translate(-10 -13.333)">
    <path id="Path_440" data-name="Path 440" d="M71.606,33.479v-3.1l-2.392-.6a7.2,7.2,0,0,0-.827-1.758L69.47,25.8l-2.376-2-2,1.45a7.157,7.157,0,0,0-1.763-.479V39.084a7.161,7.161,0,0,0,1.763-.479l2,1.449,2.376-1.993-1.084-2.225a7.2,7.2,0,0,0,.826-1.758Z" transform="translate(-36.788 -7.221)" fill="#0d2815"/>
    <path id="Path_441" data-name="Path 441" d="M22.409,13.333H12.068A2.075,2.075,0,0,0,10,15.4V34.014a2.075,2.075,0,0,0,2.068,2.068h10.34a2.075,2.075,0,0,0,2.068-2.068V15.4A2.075,2.075,0,0,0,22.409,13.333ZM12.068,15.4h6.2v2.068h-6.2Zm0,8.273H20.34v2.068H12.068Zm0,4.136h6.2v2.068h-6.2Zm10.34,6.2H12.068V31.946h10.34Zm0-12.409H12.068V19.537h10.34Z" fill="#0d2815"/>
  </g>
</svg>
