<svg id="earth-grid-select-language-button_1_" data-name="earth-grid-select-language-button (1)" xmlns="http://www.w3.org/2000/svg" width="25.411" height="25.411" viewBox="0 0 25.411 25.411">
  <g id="language">
    <path id="Path_378" data-name="Path 378" d="M12.705,0A12.705,12.705,0,1,0,25.411,12.705,12.743,12.743,0,0,0,12.705,0Zm8.767,7.623H17.788a20.081,20.081,0,0,0-1.779-4.574A10.227,10.227,0,0,1,21.472,7.623ZM12.705,2.541a17.06,17.06,0,0,1,2.414,5.082H10.291A18.681,18.681,0,0,1,12.705,2.541ZM2.922,15.246a8.192,8.192,0,0,1-.381-2.541,8.192,8.192,0,0,1,.381-2.541h4.32a17.028,17.028,0,0,0-.127,2.541c0,.889.127,1.652.127,2.541Zm1.016,2.541H7.623A20.081,20.081,0,0,0,9.4,22.362,10.227,10.227,0,0,1,3.939,17.788ZM7.623,7.623H3.939A10.708,10.708,0,0,1,9.4,3.049,20.081,20.081,0,0,0,7.623,7.623ZM12.705,22.87a17.06,17.06,0,0,1-2.414-5.082h4.828A18.681,18.681,0,0,1,12.705,22.87Zm2.922-7.623H9.783a17.219,17.219,0,0,1-.254-2.541,17.219,17.219,0,0,1,.254-2.541h5.972a17.219,17.219,0,0,1,.254,2.541A17.538,17.538,0,0,1,15.628,15.246Zm.381,7.115a18.026,18.026,0,0,0,1.779-4.574h3.685A10.227,10.227,0,0,1,16.009,22.362ZM18.3,15.246a17.028,17.028,0,0,0,.127-2.541c0-.889-.127-1.652-.127-2.541h4.32A8.192,8.192,0,0,1,23,12.705a8.194,8.194,0,0,1-.381,2.541Z" fill="#0d2815"/>
  </g>
</svg>
