<svg xmlns="http://www.w3.org/2000/svg" width="18.352" height="23.613" viewBox="0 0 18.352 23.613"><g transform="translate(-4.065 -0.5)"><path d="M13.241.5A9.175,9.175,0,0,0,4.065,9.676c0,5.068,9.176,14.437,9.176,14.437s9.176-9.369,9.176-14.437A9.175,9.175,0,0,0,13.241.5Zm0,15.9a6.851,6.851,0,1,1,6.851-6.851A6.851,6.851,0,0,1,13.241,16.4Z"/><circle cx="1.126" cy="1.126" r="1.126" transform="translate(12.149 5.012)"/><path d="M16.866,10.538h-3.4v.884h1.146v3.56H13.539v1.347h4.4V14.982H16.866Z" transform="translate(-2.465 -2.631)"/></g></svg>