<svg xmlns="http://www.w3.org/2000/svg" width="39.752" height="31.234" viewBox="0 0 39.752 31.234">
  <g id="noun_Restaurant_2195728" transform="translate(46.471 107.677)">
    <g id="Group_151" data-name="Group 151" transform="translate(0 -288.533)">
      <path id="Path_396" data-name="Path 396" d="M20.405,289.856a4.281,4.281,0,0,0-4.259,4.259,4.178,4.178,0,0,0,.452,1.861,17.025,17.025,0,0,0-13.229,16.6v2.839H37.442v-2.839a17.025,17.025,0,0,0-13.229-16.6,4.179,4.179,0,0,0,.452-1.861,4.281,4.281,0,0,0-4.259-4.259Zm0,11.358a9.939,9.939,0,0,1,7.027,2.909l-2.008,2.01a7.1,7.1,0,0,0-5.019-2.08ZM.529,318.251v2.839H40.281v-2.839Z" transform="translate(-47 -109)"/>
    </g>
  </g>
</svg>
