<svg xmlns="http://www.w3.org/2000/svg" width="62.334" height="50.031" viewBox="0 0 62.334 50.031">
  <g id="noun_no_internet_3242241" data-name="noun_no internet_3242241" transform="translate(-2.502 -7.239)">
    <g id="Group_150" data-name="Group 150" transform="translate(2.502 7.239)">
      <path id="Path_391" data-name="Path 391" d="M28.6,49.52a5.076,5.076,0,0,0,.39.532,8.848,8.848,0,0,1-1.545-.065,9.37,9.37,0,1,1,3.078-18.481A9.121,9.121,0,0,1,34.085,33l-5.7,11.416A5.186,5.186,0,0,0,28.6,49.52Z" transform="translate(2.55 -0.039)" fill="#0d2815"/>
      <path id="Path_392" data-name="Path 392" d="M44.224,22.823A4.994,4.994,0,0,0,42.769,24.6l-2.714,5.429a16.465,16.465,0,0,0-21.91,4.208c-1.208,1.571-2.7,2.442-4.7,1.948-2.987-.714-4.078-4.143-2.117-6.766A24.856,24.856,0,0,1,36.678,19.94,25.437,25.437,0,0,1,44.224,22.823Z" transform="translate(-0.16 -3.614)" fill="#0d2815"/>
      <path id="Path_393" data-name="Path 393" d="M63.063,27.093a3.625,3.625,0,0,1-3.61.234,6.005,6.005,0,0,1-1.869-1.4C48.94,16.985,38.089,13.672,25.135,16.6,19.21,17.94,14.2,21.529,10.015,25.946c-2.251,2.378-5.351,2.294-6.923-.255a.021.021,0,0,0-.021-.021A4.159,4.159,0,0,1,3.113,21.4c1.508-2.442,3.8-4.141,6.052-5.84A40.624,40.624,0,0,1,63.4,20.043c.127.127.234.255.34.382C65.356,22.485,65.228,25.628,63.063,27.093Z" transform="translate(-2.502 -7.239)" fill="#0d2815"/>
      <path id="Path_394" data-name="Path 394" d="M57.048,47.873l-11.7-23.389a3.309,3.309,0,0,0-5.92,0L27.739,47.875a3.309,3.309,0,0,0,2.96,4.788H54.089A3.309,3.309,0,0,0,57.048,47.873ZM40.889,33.193a.521.521,0,0,1,.161-.4.551.551,0,0,1,.391-.15h1.907a.549.549,0,0,1,.552.552V43.7a.549.549,0,0,1-.552.552H41.441a.549.549,0,0,1-.552-.552Zm3.149,14.984a.534.534,0,0,1-.161.391.561.561,0,0,1-.414.161H41.3a.549.549,0,0,1-.552-.552V45.993a.525.525,0,0,1,.161-.4.555.555,0,0,1,.391-.149h2.16a.561.561,0,0,1,.414.161.533.533,0,0,1,.161.39Z" transform="translate(4.932 -2.633)" fill="#0d2815"/>
    </g>
  </g>
</svg>
