<svg xmlns="http://www.w3.org/2000/svg" width="21.411" height="24.613" viewBox="0 0 21.411 24.613">
  <g id="order-food" transform="translate(-33.31)">
    <g id="Group_138" data-name="Group 138" transform="translate(33.31 0)">
      <g id="Group_136" data-name="Group 136" transform="translate(0 0)">
        <path id="Path_379" data-name="Path 379" d="M123.31,0V1.629a1.257,1.257,0,0,0,1.256,1.256h4.848a1.257,1.257,0,0,0,1.256-1.256V0Zm0,0V1.629a1.257,1.257,0,0,0,1.256,1.256h4.848a1.257,1.257,0,0,0,1.256-1.256V0Z" transform="translate(-118.983 0)" fill="#0d2815"/>
        <path id="Path_380" data-name="Path 380" d="M38.731,10.7,41.3,9.3a3.9,3.9,0,0,1,3.885-4.054h4.14v-3.9A1.348,1.348,0,0,0,47.976,0H46.438V1.629a2.7,2.7,0,0,1-2.7,2.7H38.892a2.7,2.7,0,0,1-2.7-2.7V0H34.657A1.348,1.348,0,0,0,33.31,1.347V23.266a1.348,1.348,0,0,0,1.347,1.347H47.976a1.348,1.348,0,0,0,1.347-1.347v-3.9h-4.14A3.89,3.89,0,0,1,41.3,15.724l-2.573-1.4a2.063,2.063,0,0,1,0-3.619Zm1.392,10.066H42.51a.721.721,0,1,1,0,1.442H40.122a.721.721,0,0,1,0-1.442Z" transform="translate(-33.31 0)" fill="#0d2815"/>
      </g>
      <g id="Group_137" data-name="Group 137" transform="translate(5.79 6.689)">
        <path id="Path_381" data-name="Path 381" d="M312.475,231.1v.616H308.05V231.1a2.213,2.213,0,0,1,4.425,0Z" transform="translate(-300.632 -224.575)" fill="#0d2815"/>
        <path id="Path_382" data-name="Path 382" d="M166.929,139.14h-7.1a2.446,2.446,0,0,0-2.443,2.443v.436a.992.992,0,0,1-.517.871l-2.8,1.529a.62.62,0,0,0,0,1.088l2.8,1.527a.992.992,0,0,1,.517.872v.028a2.446,2.446,0,0,0,2.443,2.443h7.1a2.446,2.446,0,0,0,2.443-2.443v-6.35A2.446,2.446,0,0,0,166.929,139.14Zm.137,8.585H159.7a.721.721,0,0,1,0-1.442h.03v-.616a3.661,3.661,0,0,1,2.933-3.583v-.534a.721.721,0,0,1,1.442,0v.534a3.661,3.661,0,0,1,2.934,3.583v.616h.03a.721.721,0,0,1,0,1.442Z" transform="translate(-153.75 -139.14)" fill="#0d2815"/>
      </g>
    </g>
  </g>
</svg>
