<svg xmlns="http://www.w3.org/2000/svg" width="26.711" height="26.711" viewBox="0 0 26.711 26.711">
  <path id="time" d="M22.8,3.912A13.355,13.355,0,1,0,3.912,22.8,13.355,13.355,0,1,0,22.8,3.912ZM13.356,24.135A10.779,10.779,0,1,1,24.135,13.355,10.791,10.791,0,0,1,13.356,24.135Zm6.633-10.779a.783.783,0,0,1,.783-.783h1.765A9.171,9.171,0,0,0,20.4,7.423L19.158,8.665A.783.783,0,0,1,18.05,7.558l1.243-1.243a9.174,9.174,0,0,0-5.155-2.141V5.94a.783.783,0,1,1-1.565,0V4.175a9.172,9.172,0,0,0-5.15,2.136L8.67,7.558A.783.783,0,0,1,7.564,8.665L6.316,7.418a9.171,9.171,0,0,0-2.141,5.155H5.94a.783.783,0,1,1,0,1.565H4.175a9.171,9.171,0,0,0,2.141,5.155l1.248-1.248A.783.783,0,1,1,8.67,19.152L7.423,20.4a9.173,9.173,0,0,0,5.15,2.136V20.771a.783.783,0,1,1,1.565,0v1.765A9.171,9.171,0,0,0,19.294,20.4l-1.243-1.243a.783.783,0,0,1,1.107-1.107L20.4,19.288a9.173,9.173,0,0,0,2.136-5.15H20.771a.783.783,0,0,1-.783-.783ZM15.906,15.9a.782.782,0,0,1-1.106,0l-1.977-1.972a.841.841,0,0,1-.249-.6V8.59a.783.783,0,1,1,1.565,0v4.441L15.9,14.793a.783.783,0,0,1,0,1.107Zm0,0" transform="translate(0)" fill="#0d2815"/>
</svg>
