<svg id="Layer_1" data-name="Layer 1" xmlns="http://www.w3.org/2000/svg" viewBox="0 0 112.2 75.28"><defs><style>.cls-1{fill:#0e0504;}.cls-2{fill:none;}.cls-3{fill:#fff;}.cls-4{fill:#4b1f0e;}</style></defs><title>ugur kofe ai</title><g id="Group_4" data-name="Group 4"><g id="Rectangle_1" data-name="Rectangle 1"><rect class="cls-1" x="50.36" y="123.49" width="116.29" height="8.75" transform="translate(-103.91 -27.22) rotate(-29)"/><rect class="cls-1" x="50.98" y="124.12" width="115.04" height="7.5" transform="translate(-103.91 -27.22) rotate(-29)"/></g><g id="Rectangle_2" data-name="Rectangle 2"><rect class="cls-1" x="56.61" y="134.74" width="116.29" height="8.75" transform="translate(-108.58 -22.78) rotate(-29)"/><rect class="cls-2" x="57.23" y="135.37" width="115.04" height="7.5" transform="translate(-108.58 -22.78) rotate(-29)"/></g><path id="Path_5" data-name="Path 5" class="cls-3" d="M110.18,104A29.38,29.38,0,1,1,80.8,133.36,29.37,29.37,0,0,1,110.18,104Z" transform="translate(-55.52 -95.85)"/><g id="noun_Coffee_Bean_1942182" data-name="noun Coffee Bean 1942182"><g id="Group_3" data-name="Group 3"><path id="Path_3" data-name="Path 3" class="cls-4" d="M109.15,134.62c-5.47,6-11.09,12.23-18.56,12.3a1.35,1.35,0,0,0-1.34,1.35,1.36,1.36,0,0,0,.51,1c6.3,4.91,17.11,5.82,27.58,1.58,12.45-5,20.19-15.63,18.7-24.74a4.15,4.15,0,0,0-2.9-3.22C122.71,119.66,116.1,126.93,109.15,134.62Z" transform="translate(-55.52 -95.85)"/><path id="Path_4" data-name="Path 4" class="cls-4" d="M84.49,140.6a4,4,0,0,0,3,3.22c7.9,2,13.42-4.06,19.7-11,6-6.64,12.65-14,22.18-13.33a1.34,1.34,0,0,0,.92-2.4c-6.36-4.57-16.87-5.31-27.06-1.18C90.75,120.93,83,131.5,84.49,140.6Z" transform="translate(-55.52 -95.85)"/></g></g></g><path class="cls-1" d="M79.42,131.93c-.94.15-1.8-.58-2.65-2.23l-3.25-6.31c.51-1.24.79-1.85,1.39-3l3.2,6.21c1,2,2,2.05,3.1.26a5.91,5.91,0,0,0,.89-2.7,5.72,5.72,0,0,0-.73-2.95L78.17,115c.74-1,1.13-1.54,2-2.52l3.25,6.32a8.57,8.57,0,0,1,.93,5.11,13.15,13.15,0,0,1-2,5.2C81.29,130.79,80.36,131.78,79.42,131.93Z" transform="translate(-55.52 -95.85)"/><path class="cls-1" d="M92.19,109.68c1-.63,1.46-.92,2.47-1.49L97,112.78a10.52,10.52,0,0,1-1.65,2.38,15.38,15.38,0,0,1-2.24,2,9.38,9.38,0,0,1-3.35,1.67,4.51,4.51,0,0,1-3-.22,4.8,4.8,0,0,1-2.23-2.3,8.08,8.08,0,0,1-.87-3.71,9.16,9.16,0,0,1,.88-4,8.45,8.45,0,0,1,2.61-3.21,7.22,7.22,0,0,1,3-1.34,5.63,5.63,0,0,1,2.86.21c-.39,1-.58,1.52-1,2.57a4,4,0,0,0-3.59.7,5.31,5.31,0,0,0-1.6,1.88,5.23,5.23,0,0,0-.55,2.31,4.86,4.86,0,0,0,.56,2.27,3.35,3.35,0,0,0,1.38,1.49,2.87,2.87,0,0,0,1.86.25,5,5,0,0,0,2-1A6.89,6.89,0,0,0,93.9,113Z" transform="translate(-55.52 -95.85)"/><path class="cls-1" d="M101.05,110.93a5.93,5.93,0,0,1-3.46-3.16l-3.26-6.33c1.14-.54,1.72-.79,2.9-1.24,1.29,2.49,1.93,3.74,3.21,6.23,1,2,2.5,2.64,4.45,2a2.57,2.57,0,0,0,1.8-1.33,3,3,0,0,0-.42-2.48c-1.29-2.49-1.93-3.74-3.21-6.24,1.22-.27,1.84-.39,3.08-.57l3.27,6.34c.85,1.66,1,3,.35,4.1s-1.87,1.85-3.74,2.42A8.31,8.31,0,0,1,101.05,110.93Z" transform="translate(-55.52 -95.85)"/><path class="cls-1" d="M124,109.2c-1.73-1.43-2.6-2.12-4.34-3.47h-.16c-1.13-.09-1.69-.12-2.82-.13l1.63,3.16c-1.3,0-1.94,0-3.22.09l-5.83-11.32a34.83,34.83,0,0,1,6,0,10.79,10.79,0,0,1,3.5.88,11.09,11.09,0,0,1,2.86,1.82,8.14,8.14,0,0,1,1.87,2.34,2.59,2.59,0,0,1,.36,2,1.8,1.8,0,0,1-1.42,1c2,1.65,3,2.5,5,4.26A33.18,33.18,0,0,0,124,109.2Zm-5.29-8.8a5.6,5.6,0,0,0-2.49-.73c-1.06-.08-1.59-.1-2.65-.11l2,4c1.05,0,1.58,0,2.64.1a2.85,2.85,0,0,0,2-.29c.33-.28.34-.73,0-1.35A3.88,3.88,0,0,0,118.73,100.4Z" transform="translate(-55.52 -95.85)"/><path class="cls-1" d="M103.63,165.57c-.47.55-.71.81-1.19,1.31l1.43,2.8a33.19,33.19,0,0,1-3.39-.65l-5.62-11c1.35.3,2,.42,3.38.61l2.63,5.16a42.09,42.09,0,0,0,3.85-4.79,32.36,32.36,0,0,0,3.69-.26,52.54,52.54,0,0,1-3.47,5.19c3.8,2.55,5.7,3.72,9.45,5.9a33.41,33.41,0,0,1-3.88.26C107.77,168.39,106.39,167.48,103.63,165.57Z" transform="translate(-55.52 -95.85)"/><path class="cls-1" d="M117.91,168.64a9.41,9.41,0,0,1-3.78-1.57,7.66,7.66,0,0,1-2.5-2.81,4.52,4.52,0,0,1-.49-3.09,4.72,4.72,0,0,1,1.7-2.57,10.32,10.32,0,0,1,3.45-1.81,12.05,12.05,0,0,1,4.06-.68,7.49,7.49,0,0,1,3.52.88,5.67,5.67,0,0,1,2.39,2.5,6,6,0,0,1,.62,3.45,6.13,6.13,0,0,1-1.44,3.26,7,7,0,0,1-3.31,2.15A8.77,8.77,0,0,1,117.91,168.64Zm5-3.71a3.3,3.3,0,0,0,.81-1.87,3.64,3.64,0,0,0-.41-2.09,4.12,4.12,0,0,0-1.46-1.63,4.59,4.59,0,0,0-2.1-.66,6,6,0,0,0-2.35.31,5,5,0,0,0-1.94,1.1,2.91,2.91,0,0,0-.91,1.65,3.18,3.18,0,0,0,.37,2,4.7,4.7,0,0,0,1.5,1.73,5.22,5.22,0,0,0,4.59.71A4.2,4.2,0,0,0,122.92,164.93Z" transform="translate(-55.52 -95.85)"/><path class="cls-1" d="M129.22,152.82l1.51,3a32.7,32.7,0,0,0,4.82-4.37l1.07,2.1a33.22,33.22,0,0,1-4.83,4.36l2.07,4.11c-1,.78-1.57,1.15-2.66,1.85l-5.69-11.25a32.39,32.39,0,0,0,8-6.91l1.07,2.1A33,33,0,0,1,129.22,152.82Z" transform="translate(-55.52 -95.85)"/><path class="cls-1" d="M145.31,143.59l1.08,2.11a32.61,32.61,0,0,1-5.65,9.61L135,144a32.25,32.25,0,0,0,5.48-9.41l1.08,2.12a32.56,32.56,0,0,1-3.56,6.74l1.25,2.46a32.9,32.9,0,0,0,3.22-5.9l1,2a31.33,31.33,0,0,1-3.23,5.89l1.34,2.63A32.68,32.68,0,0,0,145.31,143.59Z" transform="translate(-55.52 -95.85)"/></svg>